<?xml version="1.0" encoding="UTF-8" standalone="no"?>
<!DOCTYPE svg PUBLIC "-//W3C//DTD SVG 1.1//EN"
 "http://www.w3.org/Graphics/SVG/1.1/DTD/svg11.dtd">
<!-- Generated by graphviz version 2.40.1 (20161225.0304)
 -->
<!-- Title: Taskflow Pages: 1 -->
<svg width="906pt" height="779pt"
 viewBox="0.00 0.00 906.00 779.00" xmlns="http://www.w3.org/2000/svg" xmlns:xlink="http://www.w3.org/1999/xlink">
<g id="graph0" class="graph" transform="scale(1 1) rotate(0) translate(4 775)">
<title>Taskflow</title>
<polygon fill="#ffffff" stroke="transparent" points="-4,4 -4,-775 902,-775 902,4 -4,4"/>
<g id="clust1" class="cluster">
<title>cluster_p0x7fe7c58ce0</title>
<polygon fill="none" stroke="#000000" points="8,-8 8,-763 890,-763 890,-8 8,-8"/>
<text text-anchor="middle" x="449" y="-747.8" font-family="Times,serif" font-size="14.00" fill="#000000">Taskflow: K&#45;Means</text>
</g>
<!-- p0x557b156650 -->
<g id="node1" class="node">
<title>p0x557b156650</title>
<ellipse fill="none" stroke="#000000" cx="753" cy="-714" rx="27" ry="18"/>
<text text-anchor="middle" x="753" y="-710.3" font-family="Times,serif" font-size="14.00" fill="#000000">init</text>
</g>
<!-- p0x557b156760 -->
<g id="node2" class="node">
<title>p0x557b156760</title>
<ellipse fill="none" stroke="#000000" cx="753" cy="-603" rx="42.4939" ry="18"/>
<text text-anchor="middle" x="753" y="-599.3" font-family="Times,serif" font-size="14.00" fill="#000000">clean_up</text>
</g>
<!-- p0x557b156650&#45;&gt;p0x557b156760 -->
<g id="edge1" class="edge">
<title>p0x557b156650&#45;&gt;p0x557b156760</title>
<path fill="none" stroke="#000000" d="M753,-695.6706C753,-678.2373 753,-651.7482 753,-631.5489"/>
<polygon fill="#000000" stroke="#000000" points="756.5001,-631.3566 753,-621.3566 749.5001,-631.3567 756.5001,-631.3566"/>
</g>
<!-- p0x557b156870 -->
<g id="node3" class="node">
<title>p0x557b156870</title>
<ellipse fill="none" stroke="#000000" cx="493" cy="-492" rx="77.1866" ry="18"/>
<text text-anchor="middle" x="493" y="-488.3" font-family="Times,serif" font-size="14.00" fill="#000000">beg_assign_cluster</text>
</g>
<!-- p0x557b156760&#45;&gt;p0x557b156870 -->
<g id="edge2" class="edge">
<title>p0x557b156760&#45;&gt;p0x557b156870</title>
<path fill="none" stroke="#000000" d="M722.9207,-590.1585C677.9028,-570.9393 592.6295,-534.5341 539.5362,-511.8674"/>
<polygon fill="#000000" stroke="#000000" points="540.9077,-508.6473 530.3365,-507.9398 538.1592,-515.0852 540.9077,-508.6473"/>
</g>
<!-- p0x557b156a90 -->
<g id="node4" class="node">
<title>p0x557b156a90</title>
<ellipse fill="none" stroke="#000000" cx="61" cy="-381" rx="44.6926" ry="18"/>
<text text-anchor="middle" x="61" y="-377.3" font-family="Times,serif" font-size="14.00" fill="#000000">partition0</text>
</g>
<!-- p0x557b156870&#45;&gt;p0x557b156a90 -->
<g id="edge3" class="edge">
<title>p0x557b156870&#45;&gt;p0x557b156a90</title>
<path fill="none" stroke="#000000" d="M436.587,-479.6137C362.3796,-462.9803 228.1267,-431.7133 115,-399 111.6715,-398.0375 108.2417,-397.0009 104.8009,-395.9287"/>
<polygon fill="#000000" stroke="#000000" points="105.7405,-392.5547 95.1497,-392.8444 103.6096,-399.2225 105.7405,-392.5547"/>
</g>
<!-- p0x557b156ba0 -->
<g id="node5" class="node">
<title>p0x557b156ba0</title>
<ellipse fill="none" stroke="#000000" cx="169" cy="-381" rx="44.6926" ry="18"/>
<text text-anchor="middle" x="169" y="-377.3" font-family="Times,serif" font-size="14.00" fill="#000000">partition1</text>
</g>
<!-- p0x557b156870&#45;&gt;p0x557b156ba0 -->
<g id="edge4" class="edge">
<title>p0x557b156870&#45;&gt;p0x557b156ba0</title>
<path fill="none" stroke="#000000" d="M449.3039,-477.03C387.3273,-455.7973 274.5567,-417.1629 212.6211,-395.9443"/>
<polygon fill="#000000" stroke="#000000" points="213.7274,-392.6236 203.1328,-392.6937 211.4587,-399.2458 213.7274,-392.6236"/>
</g>
<!-- p0x557b156cb0 -->
<g id="node6" class="node">
<title>p0x557b156cb0</title>
<ellipse fill="none" stroke="#000000" cx="277" cy="-381" rx="44.6926" ry="18"/>
<text text-anchor="middle" x="277" y="-377.3" font-family="Times,serif" font-size="14.00" fill="#000000">partition2</text>
</g>
<!-- p0x557b156870&#45;&gt;p0x557b156cb0 -->
<g id="edge5" class="edge">
<title>p0x557b156870&#45;&gt;p0x557b156cb0</title>
<path fill="none" stroke="#000000" d="M460.6626,-475.3822C421.2736,-455.1406 354.9006,-421.0322 313.6529,-399.8355"/>
<polygon fill="#000000" stroke="#000000" points="315.2419,-396.717 304.7478,-395.2593 312.0424,-402.9431 315.2419,-396.717"/>
</g>
<!-- p0x557b156dc0 -->
<g id="node7" class="node">
<title>p0x557b156dc0</title>
<ellipse fill="none" stroke="#000000" cx="385" cy="-381" rx="44.6926" ry="18"/>
<text text-anchor="middle" x="385" y="-377.3" font-family="Times,serif" font-size="14.00" fill="#000000">partition3</text>
</g>
<!-- p0x557b156870&#45;&gt;p0x557b156dc0 -->
<g id="edge6" class="edge">
<title>p0x557b156870&#45;&gt;p0x557b156dc0</title>
<path fill="none" stroke="#000000" d="M475.6479,-474.1659C457.4859,-455.4994 428.8515,-426.0696 408.6328,-405.2893"/>
<polygon fill="#000000" stroke="#000000" points="411.0817,-402.7872 401.5996,-398.0607 406.0646,-407.6687 411.0817,-402.7872"/>
</g>
<!-- p0x557b156ed0 -->
<g id="node8" class="node">
<title>p0x557b156ed0</title>
<ellipse fill="none" stroke="#000000" cx="493" cy="-381" rx="44.6926" ry="18"/>
<text text-anchor="middle" x="493" y="-377.3" font-family="Times,serif" font-size="14.00" fill="#000000">partition4</text>
</g>
<!-- p0x557b156870&#45;&gt;p0x557b156ed0 -->
<g id="edge7" class="edge">
<title>p0x557b156870&#45;&gt;p0x557b156ed0</title>
<path fill="none" stroke="#000000" d="M493,-473.6706C493,-456.2373 493,-429.7482 493,-409.5489"/>
<polygon fill="#000000" stroke="#000000" points="496.5001,-409.3566 493,-399.3566 489.5001,-409.3567 496.5001,-409.3566"/>
</g>
<!-- p0x557b156fe0 -->
<g id="node9" class="node">
<title>p0x557b156fe0</title>
<ellipse fill="none" stroke="#000000" cx="601" cy="-381" rx="44.6926" ry="18"/>
<text text-anchor="middle" x="601" y="-377.3" font-family="Times,serif" font-size="14.00" fill="#000000">partition5</text>
</g>
<!-- p0x557b156870&#45;&gt;p0x557b156fe0 -->
<g id="edge8" class="edge">
<title>p0x557b156870&#45;&gt;p0x557b156fe0</title>
<path fill="none" stroke="#000000" d="M510.3521,-474.1659C528.5141,-455.4994 557.1485,-426.0696 577.3672,-405.2893"/>
<polygon fill="#000000" stroke="#000000" points="579.9354,-407.6687 584.4004,-398.0607 574.9183,-402.7872 579.9354,-407.6687"/>
</g>
<!-- p0x557b1570f0 -->
<g id="node10" class="node">
<title>p0x557b1570f0</title>
<ellipse fill="none" stroke="#000000" cx="709" cy="-381" rx="44.6926" ry="18"/>
<text text-anchor="middle" x="709" y="-377.3" font-family="Times,serif" font-size="14.00" fill="#000000">partition6</text>
</g>
<!-- p0x557b156870&#45;&gt;p0x557b1570f0 -->
<g id="edge9" class="edge">
<title>p0x557b156870&#45;&gt;p0x557b1570f0</title>
<path fill="none" stroke="#000000" d="M525.3374,-475.3822C564.7264,-455.1406 631.0994,-421.0322 672.3471,-399.8355"/>
<polygon fill="#000000" stroke="#000000" points="673.9576,-402.9431 681.2522,-395.2593 670.7581,-396.717 673.9576,-402.9431"/>
</g>
<!-- p0x557b157200 -->
<g id="node11" class="node">
<title>p0x557b157200</title>
<ellipse fill="none" stroke="#000000" cx="817" cy="-381" rx="44.6926" ry="18"/>
<text text-anchor="middle" x="817" y="-377.3" font-family="Times,serif" font-size="14.00" fill="#000000">partition7</text>
</g>
<!-- p0x557b156870&#45;&gt;p0x557b157200 -->
<g id="edge10" class="edge">
<title>p0x557b156870&#45;&gt;p0x557b157200</title>
<path fill="none" stroke="#000000" d="M536.6961,-477.03C598.6727,-455.7973 711.4433,-417.1629 773.3789,-395.9443"/>
<polygon fill="#000000" stroke="#000000" points="774.5413,-399.2458 782.8672,-392.6937 772.2726,-392.6236 774.5413,-399.2458"/>
</g>
<!-- p0x557b156980 -->
<g id="node12" class="node">
<title>p0x557b156980</title>
<ellipse fill="none" stroke="#000000" cx="493" cy="-256" rx="77.1866" ry="18"/>
<text text-anchor="middle" x="493" y="-252.3" font-family="Times,serif" font-size="14.00" fill="#000000">end_assign_cluster</text>
</g>
<!-- p0x557b156a90&#45;&gt;p0x557b156980 -->
<g id="edge12" class="edge">
<title>p0x557b156a90&#45;&gt;p0x557b156980</title>
<path fill="none" stroke="#000000" d="M95.2035,-369.3359C101.7575,-367.1754 108.5779,-364.9782 115,-363 226.3495,-328.7017 357.4127,-292.5316 432.296,-272.2607"/>
<polygon fill="#000000" stroke="#000000" points="433.2955,-275.6163 442.0358,-269.6281 431.4689,-268.8588 433.2955,-275.6163"/>
</g>
<!-- p0x557b156ba0&#45;&gt;p0x557b156980 -->
<g id="edge13" class="edge">
<title>p0x557b156ba0&#45;&gt;p0x557b156980</title>
<path fill="none" stroke="#000000" d="M201.5498,-368.4422C258.4474,-346.491 376.31,-301.0193 443.4145,-275.1302"/>
<polygon fill="#000000" stroke="#000000" points="444.8636,-278.3226 452.9336,-271.4577 442.344,-271.7918 444.8636,-278.3226"/>
</g>
<!-- p0x557b156cb0&#45;&gt;p0x557b156980 -->
<g id="edge14" class="edge">
<title>p0x557b156cb0&#45;&gt;p0x557b156980</title>
<path fill="none" stroke="#000000" d="M302.6263,-366.17C340.3935,-344.314 411.2488,-303.3097 455.0553,-277.9587"/>
<polygon fill="#000000" stroke="#000000" points="457.0688,-280.8374 463.9709,-272.7992 453.5626,-274.7788 457.0688,-280.8374"/>
</g>
<!-- p0x557b156dc0&#45;&gt;p0x557b156980 -->
<g id="edge15" class="edge">
<title>p0x557b156dc0&#45;&gt;p0x557b156980</title>
<path fill="none" stroke="#000000" d="M399.7905,-363.8814C418.1642,-342.6155 449.6778,-306.1414 470.9168,-281.5592"/>
<polygon fill="#000000" stroke="#000000" points="473.8025,-283.5728 477.6919,-273.7177 468.5057,-278.9964 473.8025,-283.5728"/>
</g>
<!-- p0x557b156ed0&#45;&gt;p0x557b156980 -->
<g id="edge16" class="edge">
<title>p0x557b156ed0&#45;&gt;p0x557b156980</title>
<path fill="none" stroke="#000000" d="M493,-362.8239C493,-342.2723 493,-308.5472 493,-284.4893"/>
<polygon fill="#000000" stroke="#000000" points="496.5001,-284.198 493,-274.198 489.5001,-284.198 496.5001,-284.198"/>
</g>
<!-- p0x557b156fe0&#45;&gt;p0x557b156980 -->
<g id="edge17" class="edge">
<title>p0x557b156fe0&#45;&gt;p0x557b156980</title>
<path fill="none" stroke="#000000" d="M586.2095,-363.8814C567.8358,-342.6155 536.3222,-306.1414 515.0832,-281.5592"/>
<polygon fill="#000000" stroke="#000000" points="517.4943,-278.9964 508.3081,-273.7177 512.1975,-283.5728 517.4943,-278.9964"/>
</g>
<!-- p0x557b1570f0&#45;&gt;p0x557b156980 -->
<g id="edge18" class="edge">
<title>p0x557b1570f0&#45;&gt;p0x557b156980</title>
<path fill="none" stroke="#000000" d="M683.3737,-366.17C645.6065,-344.314 574.7512,-303.3097 530.9447,-277.9587"/>
<polygon fill="#000000" stroke="#000000" points="532.4374,-274.7788 522.0291,-272.7992 528.9312,-280.8374 532.4374,-274.7788"/>
</g>
<!-- p0x557b157200&#45;&gt;p0x557b156980 -->
<g id="edge19" class="edge">
<title>p0x557b157200&#45;&gt;p0x557b156980</title>
<path fill="none" stroke="#000000" d="M784.4502,-368.4422C727.5526,-346.491 609.69,-301.0193 542.5855,-275.1302"/>
<polygon fill="#000000" stroke="#000000" points="543.656,-271.7918 533.0664,-271.4577 541.1364,-278.3226 543.656,-271.7918"/>
</g>
<!-- p0x557b157310 -->
<g id="node13" class="node">
<title>p0x557b157310</title>
<ellipse fill="none" stroke="#000000" cx="644" cy="-145" rx="61.99" ry="18"/>
<text text-anchor="middle" x="644" y="-141.3" font-family="Times,serif" font-size="14.00" fill="#000000">update_cluster</text>
</g>
<!-- p0x557b156980&#45;&gt;p0x557b157310 -->
<g id="edge11" class="edge">
<title>p0x557b156980&#45;&gt;p0x557b157310</title>
<path fill="none" stroke="#000000" d="M516.5938,-238.6563C542.4524,-219.6476 584.0561,-189.0648 612.644,-168.0498"/>
<polygon fill="#000000" stroke="#000000" points="615.0821,-170.6015 621.0664,-161.8585 610.936,-164.9614 615.0821,-170.6015"/>
</g>
<!-- p0x557b157420 -->
<g id="node14" class="node">
<title>p0x557b157420</title>
<polygon fill="#7fffd4" stroke="#000000" points="727,-52 654.273,-34 727,-16 799.727,-34 727,-52"/>
<text text-anchor="middle" x="727" y="-30.3" font-family="Times,serif" font-size="14.00" fill="#000000">converged?</text>
</g>
<!-- p0x557b157310&#45;&gt;p0x557b157420 -->
<g id="edge20" class="edge">
<title>p0x557b157310&#45;&gt;p0x557b157420</title>
<path fill="none" stroke="#000000" d="M657.3354,-127.1659C671.5124,-108.2064 693.9922,-78.143 709.5646,-57.3172"/>
<polygon fill="#000000" stroke="#000000" points="712.3826,-59.3931 715.5681,-49.2885 706.7766,-55.2012 712.3826,-59.3931"/>
</g>
<!-- p0x557b157420&#45;&gt;p0x557b156760 -->
<g id="edge21" class="edge">
<title>p0x557b157420&#45;&gt;p0x557b156760</title>
<path fill="none" stroke="#000000" stroke-dasharray="5,2" d="M769.8077,-41.4709C813.5178,-50.349 875,-66.8606 875,-89.5 875,-292.5 875,-292.5 875,-292.5 875,-348.1195 881,-361.8805 881,-417.5 881,-547.5 881,-547.5 881,-547.5 881,-565.7099 836.8416,-581.6752 800.3982,-591.7505"/>
<polygon fill="#000000" stroke="#000000" points="799.1233,-588.4684 790.367,-594.433 800.9317,-595.2307 799.1233,-588.4684"/>
<text text-anchor="middle" x="878.5" y="-314.8" font-family="Times,serif" font-size="14.00" fill="#000000">0</text>
</g>
</g>
</svg>
