<?xml version="1.0" encoding="UTF-8" standalone="no"?>
<!DOCTYPE svg PUBLIC "-//W3C//DTD SVG 1.1//EN" "http://www.w3.org/Graphics/SVG/1.1/DTD/svg11.dtd">
<!-- Generated by graphviz version 2.40.1 (20161225.0304)
 -->
<!-- Title: Taskflow Pages: 1 -->
<svg width="1044pt" height="173pt" viewBox="0.00 0.00 1044.00 172.80" xmlns="http://www.w3.org/2000/svg" xmlns:xlink="http://www.w3.org/1999/xlink">
<g id="graph0" class="graph" transform="scale(1 1) rotate(0) translate(4 168.8)">
<title>Taskflow</title>
<polygon fill="#ffffff" stroke="transparent" points="-4,4 -4,-168.8 1040,-168.8 1040,4 -4,4"/>
<g id="clust1" class="cluster">
<title>cluster_p0x7ffd8dd6d340</title>
<polygon fill="none" stroke="#000000" points="8,-8 8,-156.8 222,-156.8 222,-8 8,-8"/>
<text text-anchor="middle" x="115" y="-140.2" font-family="Times,serif" font-size="14.00" fill="#000000">Taskflow: F4</text>
</g>
<g id="clust2" class="cluster">
<title>cluster_p0x7ffd8dd6d1a0</title>
<polygon fill="none" stroke="#000000" points="230,-8 230,-156.8 588,-156.8 588,-8 230,-8"/>
<text text-anchor="middle" x="409" y="-140.2" font-family="Times,serif" font-size="14.00" fill="#000000">Taskflow: F2</text>
</g>
<g id="clust3" class="cluster">
<title>cluster_p0x7ffd8dd6d0d0</title>
<polygon fill="none" stroke="#000000" points="596,-80 596,-156.8 738,-156.8 738,-80 596,-80"/>
<text text-anchor="middle" x="667" y="-140.2" font-family="Times,serif" font-size="14.00" fill="#000000">Taskflow: F1</text>
</g>
<g id="clust4" class="cluster">
<title>cluster_p0x7ffd8dd6d270</title>
<polygon fill="none" stroke="#000000" points="746,-80 746,-156.8 1028,-156.8 1028,-80 746,-80"/>
<text text-anchor="middle" x="887" y="-140.2" font-family="Times,serif" font-size="14.00" fill="#000000">Taskflow: F3</text>
</g>
<!-- p0x55742f0eb0b0 -->
<g id="node1" class="node">
<title>p0x55742f0eb0b0</title>
<polygon fill="none" stroke="#0000ff" points="214.2394,-124 19.7606,-124 15.7606,-120 15.7606,-88 210.2394,-88 214.2394,-92 214.2394,-124"/>
<polyline fill="none" stroke="#0000ff" points="210.2394,-120 15.7606,-120 "/>
<polyline fill="none" stroke="#0000ff" points="210.2394,-120 210.2394,-88 "/>
<polyline fill="none" stroke="#0000ff" points="210.2394,-120 214.2394,-124 "/>
<text text-anchor="middle" x="115" y="-101.8" font-family="Times,serif" font-size="14.00" fill="#000000">0x55742f0eb0b0 [Taskflow: F3]</text>
</g>
<!-- p0x55742f0eb190 -->
<g id="node2" class="node">
<title>p0x55742f0eb190</title>
<polygon fill="none" stroke="#0000ff" points="214.2394,-52 19.7606,-52 15.7606,-48 15.7606,-16 210.2394,-16 214.2394,-20 214.2394,-52"/>
<polyline fill="none" stroke="#0000ff" points="210.2394,-48 15.7606,-48 "/>
<polyline fill="none" stroke="#0000ff" points="210.2394,-48 210.2394,-16 "/>
<polyline fill="none" stroke="#0000ff" points="210.2394,-48 214.2394,-52 "/>
<text text-anchor="middle" x="115" y="-29.8" font-family="Times,serif" font-size="14.00" fill="#000000">0x55742f0eb190 [Taskflow: F2]</text>
</g>
<!-- p0x55742f0eb0b0&#45;&gt;p0x55742f0eb190 -->
<g id="edge1" class="edge">
<title>p0x55742f0eb0b0-&gt;p0x55742f0eb190</title>
<path fill="none" stroke="#000000" d="M115,-87.8314C115,-80.131 115,-70.9743 115,-62.4166"/>
<polygon fill="#000000" stroke="#000000" points="118.5001,-62.4132 115,-52.4133 111.5001,-62.4133 118.5001,-62.4132"/>
</g>
<!-- p0x55742f0eab70 -->
<g id="node3" class="node">
<title>p0x55742f0eab70</title>
<ellipse fill="none" stroke="#000000" cx="553" cy="-106" rx="27" ry="18"/>
<text text-anchor="middle" x="553" y="-101.8" font-family="Times,serif" font-size="14.00" fill="#000000">f2A</text>
</g>
<!-- p0x55742f0ead30 -->
<g id="node4" class="node">
<title>p0x55742f0ead30</title>
<ellipse fill="none" stroke="#000000" cx="517" cy="-34" rx="27" ry="18"/>
<text text-anchor="middle" x="517" y="-29.8" font-family="Times,serif" font-size="14.00" fill="#000000">f2C</text>
</g>
<!-- p0x55742f0eab70&#45;&gt;p0x55742f0ead30 -->
<g id="edge2" class="edge">
<title>p0x55742f0eab70-&gt;p0x55742f0ead30</title>
<path fill="none" stroke="#000000" d="M544.2854,-88.5708C540.0403,-80.0807 534.8464,-69.6929 530.1337,-60.2674"/>
<polygon fill="#000000" stroke="#000000" points="533.237,-58.6477 525.6343,-51.2687 526.976,-61.7782 533.237,-58.6477"/>
</g>
<!-- p0x55742f0eac50 -->
<g id="node5" class="node">
<title>p0x55742f0eac50</title>
<ellipse fill="none" stroke="#000000" cx="481" cy="-106" rx="27" ry="18"/>
<text text-anchor="middle" x="481" y="-101.8" font-family="Times,serif" font-size="14.00" fill="#000000">f2B</text>
</g>
<!-- p0x55742f0eac50&#45;&gt;p0x55742f0ead30 -->
<g id="edge3" class="edge">
<title>p0x55742f0eac50-&gt;p0x55742f0ead30</title>
<path fill="none" stroke="#000000" d="M489.7146,-88.5708C493.9597,-80.0807 499.1536,-69.6929 503.8663,-60.2674"/>
<polygon fill="#000000" stroke="#000000" points="507.024,-61.7782 508.3657,-51.2687 500.763,-58.6477 507.024,-61.7782"/>
</g>
<!-- p0x55742f0eae10 -->
<g id="node6" class="node">
<title>p0x55742f0eae10</title>
<polygon fill="none" stroke="#0000ff" points="435.6685,-124 242.3315,-124 238.3315,-120 238.3315,-88 431.6685,-88 435.6685,-92 435.6685,-124"/>
<polyline fill="none" stroke="#0000ff" points="431.6685,-120 238.3315,-120 "/>
<polyline fill="none" stroke="#0000ff" points="431.6685,-120 431.6685,-88 "/>
<polyline fill="none" stroke="#0000ff" points="431.6685,-120 435.6685,-124 "/>
<text text-anchor="middle" x="337" y="-101.8" font-family="Times,serif" font-size="14.00" fill="#000000">0x55742f0eae10 [Taskflow: F1]</text>
</g>
<!-- p0x55742f0ea9b0 -->
<g id="node7" class="node">
<title>p0x55742f0ea9b0</title>
<ellipse fill="none" stroke="#000000" cx="703" cy="-106" rx="27" ry="18"/>
<text text-anchor="middle" x="703" y="-101.8" font-family="Times,serif" font-size="14.00" fill="#000000">f1A</text>
</g>
<!-- p0x55742f0eaa90 -->
<g id="node8" class="node">
<title>p0x55742f0eaa90</title>
<ellipse fill="none" stroke="#000000" cx="631" cy="-106" rx="27" ry="18"/>
<text text-anchor="middle" x="631" y="-101.8" font-family="Times,serif" font-size="14.00" fill="#000000">f1B</text>
</g>
<!-- p0x55742f0eaef0 -->
<g id="node9" class="node">
<title>p0x55742f0eaef0</title>
<polygon fill="none" stroke="#0000ff" points="1020.3291,-124 829.6709,-124 825.6709,-120 825.6709,-88 1016.3291,-88 1020.3291,-92 1020.3291,-124"/>
<polyline fill="none" stroke="#0000ff" points="1016.3291,-120 825.6709,-120 "/>
<polyline fill="none" stroke="#0000ff" points="1016.3291,-120 1016.3291,-88 "/>
<polyline fill="none" stroke="#0000ff" points="1016.3291,-120 1020.3291,-124 "/>
<text text-anchor="middle" x="923" y="-101.8" font-family="Times,serif" font-size="14.00" fill="#000000">0x55742f0eaef0 [Taskflow: F2]</text>
</g>
<!-- p0x55742f0eafd0 -->
<g id="node10" class="node">
<title>p0x55742f0eafd0</title>
<ellipse fill="none" stroke="#000000" cx="781" cy="-106" rx="27" ry="18"/>
<text text-anchor="middle" x="781" y="-101.8" font-family="Times,serif" font-size="14.00" fill="#000000">f3A</text>
</g>
</g>
</svg>